<?xml version="1.0" encoding="utf-8"?>
<!-- Generator: Adobe Illustrator 24.0.0, SVG Export Plug-In . SVG Version: 6.00 Build 0)  -->
<svg version="1.1" xmlns="http://www.w3.org/2000/svg" xmlns:xlink="http://www.w3.org/1999/xlink" x="0px" y="0px"
	 viewBox="0 0 900 400" style="enable-background:new 0 0 900 400;" xml:space="preserve">
<style type="text/css">
	.st0{enable-background:new    ;}
	.st1{fill:#60DAFD;}
</style>
<g id="Rectangle_1_2_" class="st0">
	<defs>
		
			<rect id="SVGID_1_" x="50" y="150" transform="matrix(0.5 -0.866 0.866 0.5 -58.2051 299.1859)" class="st0" width="360" height="100"/>
	</defs>
	<use xlink:href="#SVGID_1_"  style="overflow:visible;fill:#4DAEC9;"/>
	<clipPath id="SVGID_2_">
		<use xlink:href="#SVGID_1_"  style="overflow:visible;"/>
	</clipPath>
</g>
<g id="Rectangle_1_copy_2_" class="st0">
	<defs>
		
			<rect id="SVGID_3_" x="180" y="20" transform="matrix(0.866 -0.5 0.5 0.866 -69.1858 141.7949)" class="st0" width="100" height="360"/>
	</defs>
	<use xlink:href="#SVGID_3_"  style="overflow:visible;fill:#56C4E3;"/>
	<clipPath id="SVGID_4_">
		<use xlink:href="#SVGID_3_"  style="overflow:visible;"/>
	</clipPath>
</g>
<g id="Rectangle_1_copy_2_2_" class="st0">
	<defs>
		<rect id="SVGID_5_" x="50" y="150" class="st0" width="360" height="100"/>
	</defs>
	<use xlink:href="#SVGID_5_"  style="overflow:visible;fill:#60DAFD;"/>
	<clipPath id="SVGID_6_">
		<use xlink:href="#SVGID_5_"  style="overflow:visible;"/>
	</clipPath>
</g>
<g id="BLOCKO">
	<g>
		<path class="st1" d="M470.6,161.9c0-1,0.8-1.9,1.9-1.9h23.3c11.8,0,21.5,8.1,21.5,18.6c0,7.7-6.9,13.3-11.6,15.8
			c5.3,2.2,13.4,7.1,13.4,16.3c0,11.2-9.9,19.3-21.8,19.3h-24.8c-1.1,0-1.9-0.9-1.9-1.9V161.9z M494,188.4c3.8,0,7-3.2,7-7.2
			c0-4-3.2-6.8-7-6.8h-7.8v14H494z M495.3,215.7c3.9,0,7.2-3.2,7.2-7.3c0-4-4.3-7-8.2-7h-8.1v14.3H495.3z"/>
		<path class="st1" d="M530.8,161.9c0-1,0.8-1.9,1.9-1.9h11.9c1,0,1.9,0.9,1.9,1.9v53.4h23.8c1.1,0,1.9,0.9,1.9,1.9v10.9
			c0,1-0.8,1.9-1.9,1.9h-37.6c-1.1,0-1.9-0.9-1.9-1.9V161.9z"/>
		<path class="st1" d="M611.3,159c20,0,36,16.1,36,36.1s-16,35.9-36,35.9c-20,0-35.9-15.9-35.9-35.9S591.3,159,611.3,159z
			 M611.3,215c11,0,20-9,20-19.9c0-11-9-20.1-20-20.1c-10.9,0-19.9,9.1-19.9,20.1C591.4,206,600.4,215,611.3,215z"/>
		<path class="st1" d="M689.4,159c10,0,17.4,3.1,24.2,9.3c0.9,0.8,0.9,2,0.1,2.8l-7.8,8.1c-0.7,0.7-1.8,0.7-2.5,0
			c-3.7-3.3-8.6-5.1-13.5-5.1c-11.3,0-19.6,9.4-19.6,20.6c0,11.1,8.4,20.3,19.7,20.3c4.7,0,9.8-1.7,13.4-4.8c0.7-0.6,2-0.6,2.6,0.1
			l7.8,8.3c0.7,0.7,0.6,2-0.1,2.7c-6.8,6.6-15.4,9.7-24.3,9.7c-20,0-36.1-15.9-36.1-35.9S669.4,159,689.4,159z"/>
		<path class="st1" d="M724.7,162.4c0-1.3,1-2.4,2.4-2.4h11.7c1.3,0,2.4,1.1,2.4,2.4v26.3l22.2-27.7c0.4-0.5,1.3-1,1.9-1h12.6
			c1.9,0,2.9,2.2,1.8,3.7L756.3,193l25.5,33.2c1.1,1.5,0,3.7-1.9,3.7h-13.8c-0.7,0-1.6-0.4-1.8-0.7l-23.1-31.4v29.8
			c0,1.3-1.1,2.4-2.4,2.4h-11.7c-1.4,0-2.4-1.1-2.4-2.4V162.4z"/>
		<path class="st1" d="M820.4,159c20,0,36,16.1,36,36.1s-16,35.9-36,35.9s-35.9-15.9-35.9-35.9S800.4,159,820.4,159z M820.4,215
			c11,0,20-9,20-19.9c0-11-9-20.1-20-20.1c-10.9,0-19.9,9.1-19.9,20.1C800.5,206,809.5,215,820.4,215z"/>
	</g>
</g>
</svg>
